<svg width="60" height="66" viewBox="0 0 60 66" fill="none" xmlns="http://www.w3.org/2000/svg">
<path d="M30 56C45.464 56 58 43.464 58 28C58 12.536 45.464 0 30 0C14.536 0 2 12.536 2 28C2 43.464 14.536 56 30 56Z" fill="#FED4D5"/>
<path d="M16.25 52.25C16.25 52.0858 16.2177 51.9233 16.1548 51.7716C16.092 51.62 16 51.4822 15.8839 51.3661C15.7678 51.25 15.63 51.158 15.4784 51.0952C15.3267 51.0323 15.1642 51 15 51H11.25C11.0858 51 10.9233 51.0323 10.7716 51.0952C10.62 51.158 10.4822 51.25 10.3661 51.3661C10.25 51.4822 10.158 51.62 10.0952 51.7716C10.0323 51.9233 10 52.0858 10 52.25V58.5C10 58.8315 10.1317 59.1495 10.3661 59.3839C10.6005 59.6183 10.9185 59.75 11.25 59.75H15C15.3315 59.75 15.6495 59.6183 15.8839 59.3839C16.1183 59.1495 16.25 58.8315 16.25 58.5V52.25ZM50 52.25C50 52.0858 49.9677 51.9233 49.9048 51.7716C49.842 51.62 49.75 51.4822 49.6339 51.3661C49.5178 51.25 49.38 51.158 49.2284 51.0952C49.0767 51.0323 48.9142 51 48.75 51H45C44.8358 51 44.6733 51.0323 44.5216 51.0952C44.37 51.158 44.2322 51.25 44.1161 51.3661C44 51.4822 43.908 51.62 43.8451 51.7716C43.7823 51.9233 43.75 52.0858 43.75 52.25V58.5C43.75 58.8315 43.8817 59.1495 44.1161 59.3839C44.3505 59.6183 44.6685 59.75 45 59.75H48.75C49.0815 59.75 49.3995 59.6183 49.6339 59.3839C49.8683 59.1495 50 58.8315 50 58.5V52.25Z" fill="#6D4C41"/>
<path d="M45 43.5H15C15 43.5 19.1988 32.25 20 31C20.8013 29.75 22.09 29.75 22.5 29.75H37.5C37.7675 29.75 39.2575 29.7113 40 31C40.63 32.095 45 43.5 45 43.5Z" fill="#B0D3F0"/>
<path d="M47.5 42.25L30 41L12.5 42.25C11.837 42.25 11.2011 42.5134 10.7322 42.9822C10.2634 43.4511 10 44.087 10 44.75V54.75C10 55.0815 10.1317 55.3995 10.3661 55.6339C10.6005 55.8683 10.9185 56 11.25 56H48.75C49.0815 56 49.3995 55.8683 49.6339 55.6339C49.8683 55.3995 50 55.0815 50 54.75V44.75C50 44.087 49.7366 43.4511 49.2678 42.9822C48.7989 42.5134 48.163 42.25 47.5 42.25Z" fill="#FF3D00"/>
<path d="M37.5 31C37.9237 31 40.1038 31.1663 41.4325 34.44C41.6988 35.0938 43.9275 40.6775 43.9275 40.6775L44.5563 42.25H15.445L16.0725 40.6737C16.825 38.7825 18.3125 35.05 18.5562 34.4613C19.8962 31.2488 21.9137 31 22.5 31H37.5ZM37.5038 28.5H37.5H22.5C22.09 28.5 18.3338 28.5 16.25 33.5C15.9325 34.2625 13.75 39.75 13.75 39.75H8.75C8.58585 39.75 8.4233 39.7823 8.27165 39.8451C8.11999 39.908 7.98219 40 7.86612 40.1161C7.75004 40.2322 7.65797 40.37 7.59515 40.5216C7.53233 40.6733 7.5 40.8358 7.5 41V43.5C7.5 43.6642 7.53233 43.8267 7.59515 43.9784C7.65797 44.13 7.75004 44.2678 7.86612 44.3839C7.98219 44.5 8.11999 44.592 8.27165 44.6548C8.4233 44.7177 8.58585 44.75 8.75 44.75H51.25C51.5815 44.75 51.8995 44.6183 52.1339 44.3839C52.3683 44.1495 52.5 43.8315 52.5 43.5V41C52.5 40.6685 52.3683 40.3505 52.1339 40.1161C51.8995 39.8817 51.5815 39.75 51.25 39.75H46.25C46.25 39.75 44.0163 34.155 43.75 33.5C41.7188 28.5 37.8775 28.5 37.5 28.5H37.4925H37.5038Z" fill="#FF3D00"/>
<path d="M47.5 49.75C47.5 49.9142 47.4677 50.0767 47.4049 50.2284C47.342 50.38 47.25 50.5178 47.1339 50.6339C47.0178 50.75 46.88 50.842 46.7284 50.9049C46.5767 50.9677 46.4142 51 46.25 51H13.75C13.5858 51 13.4233 50.9677 13.2716 50.9049C13.12 50.842 12.9822 50.75 12.8661 50.6339C12.75 50.5178 12.658 50.38 12.5952 50.2284C12.5323 50.0767 12.5 49.9142 12.5 49.75V46C12.5 45.8359 12.5323 45.6733 12.5952 45.5216C12.658 45.37 12.75 45.2322 12.8661 45.1161C12.9822 45 13.12 44.908 13.2716 44.8452C13.4233 44.7823 13.5858 44.75 13.75 44.75H46.25C46.4142 44.75 46.5767 44.7823 46.7284 44.8452C46.88 44.908 47.0178 45 47.1339 45.1161C47.25 45.2322 47.342 45.37 47.4049 45.5216C47.4677 45.6733 47.5 45.8359 47.5 46V49.75Z" fill="#37474F"/>
<path d="M13.75 47.875C13.75 48.3723 13.9475 48.8492 14.2992 49.2008C14.6508 49.5525 15.1277 49.75 15.625 49.75C16.1223 49.75 16.5992 49.5525 16.9508 49.2008C17.3025 48.8492 17.5 48.3723 17.5 47.875C17.5 47.3777 17.3025 46.9008 16.9508 46.5492C16.5992 46.1975 16.1223 46 15.625 46C15.1277 46 14.6508 46.1975 14.2992 46.5492C13.9475 46.9008 13.75 47.3777 13.75 47.875Z" fill="#FFF176"/>
<path d="M42.5 47.875C42.5 48.3723 42.6975 48.8492 43.0492 49.2008C43.4008 49.5525 43.8777 49.75 44.375 49.75C44.8723 49.75 45.3492 49.5525 45.7008 49.2008C46.0525 48.8492 46.25 48.3723 46.25 47.875C46.25 47.3777 46.0525 46.9008 45.7008 46.5492C45.3492 46.1975 44.8723 46 44.375 46C43.8777 46 43.4008 46.1975 43.0492 46.5492C42.6975 46.9008 42.5 47.3777 42.5 47.875Z" fill="#FFF176"/>
<path d="M41.25 19.75H25V14.75H31.25V17.25L33.75 14.75H36.25V17.25L38.75 14.75H41.25L43.75 15.9975V18.5L41.25 19.75Z" fill="#90A6AF"/>
<path d="M22.5 11C19.0475 11 16.25 13.7975 16.25 17.25C16.25 20.7025 19.0475 23.5 22.5 23.5C25.9525 23.5 28.75 20.7025 28.75 17.25C28.75 13.7975 25.9525 11 22.5 11ZM20 18.5C19.6685 18.5 19.3505 18.3683 19.1161 18.1339C18.8817 17.8995 18.75 17.5815 18.75 17.25C18.75 16.9185 18.8817 16.6005 19.1161 16.3661C19.3505 16.1317 19.6685 16 20 16C20.3315 16 20.6495 16.1317 20.8839 16.3661C21.1183 16.6005 21.25 16.9185 21.25 17.25C21.25 17.5815 21.1183 17.8995 20.8839 18.1339C20.6495 18.3683 20.3315 18.5 20 18.5Z" fill="#ED4E3D"/>
<path d="M31.2502 19.75V14.75H28.2227C28.5698 15.5377 28.7491 16.3891 28.7491 17.25C28.7491 18.1109 28.5698 18.9623 28.2227 19.75H31.2502Z" fill="#90A6AF"/>
</svg>
