<svg width="60" height="60" viewBox="0 0 60 60" fill="none" xmlns="http://www.w3.org/2000/svg">
<path d="M30 60C46.5685 60 60 46.5685 60 30C60 13.4315 46.5685 0 30 0C13.4315 0 0 13.4315 0 30C0 46.5685 13.4315 60 30 60Z" fill="#CEECF6"/>
<path d="M35.4129 52.3328C35.4129 53.4833 34.4805 54.4156 33.33 54.4156H10.4158C9.26536 54.4156 8.33301 53.4833 8.33301 52.3328L8.33457 31.5C8.33457 30.3495 9.26839 29.4171 10.4174 29.4171H33.3315C34.4821 29.4171 35.4144 30.3495 35.4144 31.5L35.4129 52.3328Z" fill="#FEAA64"/>
<path d="M14.8902 31H5.04212C4.46681 31 4 31.4669 4 32.0421C4 32.6174 4.46681 33.0836 5.04212 33.0836H14.8902V31Z" fill="#E6E9ED"/>
<path d="M16.9748 37.25H7.12523C6.54992 37.25 6.08301 37.7161 6.08301 38.2914C6.08301 38.8674 6.54992 39.3336 7.12523 39.3336H16.9748V37.25Z" fill="#E6E9ED"/>
<path d="M19.0578 43.5H9.20824C8.63292 43.5 8.16602 43.9661 8.16602 44.5414C8.16602 45.1173 8.63292 45.5843 9.20824 45.5843H19.0578V43.5Z" fill="#E6E9ED"/>
<path d="M11.2906 49.75C10.7152 49.75 10.25 50.2169 10.25 50.7907C10.25 51.3674 10.7153 51.8328 11.2906 51.8328H21.1401V49.75H11.2906Z" fill="#E6E9ED"/>
<path d="M45.6368 35.1725L39.4753 35.1671H35.3981L35.2471 53.9156H53.9787L54.0001 43.5L45.6368 35.1725Z" fill="#FB5064"/>
<path d="M12.5 53.375C12.5 56.2513 14.8315 58.5829 17.7078 58.5829C20.584 58.5829 22.9157 56.2513 22.9157 53.375C22.9157 50.4972 20.584 48.1656 17.7078 48.1656C14.8315 48.1656 12.5 50.4972 12.5 53.375Z" fill="#434A54"/>
<path d="M16.666 53.375C16.666 53.9503 17.1329 54.4155 17.7082 54.4155C18.2835 54.4155 18.7505 53.9502 18.7505 53.375C18.7505 52.7998 18.2835 52.3328 17.7082 52.3328C17.1329 52.3328 16.666 52.7997 16.666 53.375Z" fill="#F5F7FA"/>
<path d="M36.458 53.375C36.458 56.2513 38.7895 58.5829 41.6659 58.5829C44.5421 58.5829 46.8737 56.2513 46.8737 53.375C46.8737 50.4972 44.5421 48.1656 41.6659 48.1656C38.7895 48.1656 36.458 50.4972 36.458 53.375Z" fill="#434A54"/>
<path d="M40.623 53.375C40.623 53.9503 41.09 54.4155 41.6653 54.4155C42.2406 54.4155 42.7059 53.9502 42.7059 53.375C42.7059 52.7998 42.2405 52.3328 41.6653 52.3328C41.0901 52.3328 40.623 52.7997 40.623 53.375Z" fill="#F5F7FA"/>
<path d="M49.4014 41.9161L44.5413 36.4407L38.3164 36.5011L38.3724 42.023L49.4014 41.9161Z" fill="white"/>
<path d="M41.4207 45.478L38.5305 45.505C38.5069 45.5052 38.4911 45.4902 38.4908 45.4676L38.4838 44.773C38.4836 44.7504 38.4991 44.7351 38.5227 44.7349L41.4128 44.708C41.4364 44.7078 41.4523 44.7227 41.4525 44.7454L41.4596 45.4399C41.4598 45.4625 41.4442 45.4778 41.4207 45.478Z" fill="white"/>
</svg>
