<svg width="66" height="71" viewBox="0 0 66 71" fill="none" xmlns="http://www.w3.org/2000/svg">
<path d="M33 60C49.5685 60 63 46.5685 63 30C63 13.4315 49.5685 0 33 0C16.4315 0 3 13.4315 3 30C3 46.5685 16.4315 60 33 60Z" fill="#FED4D5"/>
<path d="M54.1608 47.4101L51.8427 45.8058L49.7173 36.5395C49.2073 34.3161 47.2286 32.74 44.9475 32.74H21.0528C18.7716 32.74 16.7931 34.3161 16.283 36.5395L14.1575 45.8058L11.8394 47.4101C10.3058 48.4714 9.39062 50.2179 9.39062 52.0829V62.9529H56.6096V52.0829C56.6096 50.2178 55.6943 48.4714 54.1608 47.4101Z" fill="#F7CF52"/>
<path d="M49.1338 45.8058H16.8672L18.8571 37.1307C19.0936 36.1009 19.9961 35.3807 21.0535 35.3807H44.9474C46.0048 35.3807 46.9074 36.1009 47.1438 37.1307L49.1338 45.8058Z" fill="#76CDCE"/>
<path d="M12.0293 63.2268V68.1136C12.0293 68.7562 12.5502 69.2771 13.1928 69.2771H17.6512C18.2938 69.2771 18.8147 68.7562 18.8147 68.1136V63.2268" fill="#666666"/>
<path d="M47.1855 63.2268V68.1136C47.1855 68.7562 47.7064 69.2771 48.349 69.2771H52.8075C53.4501 69.2771 53.971 68.7562 53.971 68.1136V63.2268" fill="#666666"/>
<path d="M39.8409 63.2268V63.8191C39.8409 65.2577 38.6748 66.4238 37.2362 66.4238H28.7639C27.3253 66.4238 26.1592 65.2577 26.1592 63.8191V63.2268" fill="#4D4D4D"/>
<path d="M28.6079 49.0944V59.223H25.8594V52.0998C25.8594 50.5251 27.0668 49.23 28.6079 49.0944Z" fill="#03546D"/>
<path d="M32.2803 49.0824H30.0479V59.223H32.2803V49.0824Z" fill="#03546D"/>
<path d="M35.9519 49.0824H33.7207V59.223H35.9519V49.0824Z" fill="#03546D"/>
<path d="M40.1423 52.0998V59.223H37.3926V49.0944C38.9337 49.23 40.1423 50.5239 40.1423 52.0998Z" fill="#03546D"/>
<path d="M15.6414 56.5627C17.1659 56.5627 18.4018 55.3268 18.4018 53.8022C18.4018 52.2777 17.1659 51.0417 15.6414 51.0417C14.1168 51.0417 12.8809 52.2777 12.8809 53.8022C12.8809 55.3268 14.1168 56.5627 15.6414 56.5627Z" fill="white"/>
<path d="M50.3582 56.5627C51.8827 56.5627 53.1186 55.3268 53.1186 53.8022C53.1186 52.2777 51.8827 51.0417 50.3582 51.0417C48.8336 51.0417 47.5977 52.2777 47.5977 53.8022C47.5977 55.3268 48.8336 56.5627 50.3582 56.5627Z" fill="white"/>
<path d="M20.3975 57.3041C20.3386 57.3041 20.2786 57.2981 20.221 57.2873C20.1634 57.2753 20.107 57.2585 20.053 57.2356C19.9978 57.2128 19.9462 57.1852 19.897 57.1528C19.8478 57.1192 19.8021 57.082 19.76 57.0412C19.7192 56.9992 19.6809 56.9536 19.6484 56.9044C19.616 56.8552 19.5884 56.8024 19.5656 56.7484C19.5429 56.6944 19.5261 56.6379 19.514 56.5803C19.502 56.5215 19.4961 56.4627 19.4961 56.4039C19.4961 56.1675 19.5933 55.9358 19.76 55.7678C19.8021 55.7258 19.8476 55.6886 19.897 55.6562C19.9463 55.6238 19.9978 55.595 20.053 55.5734C20.107 55.5505 20.1634 55.5337 20.221 55.5217C20.3374 55.4989 20.4563 55.4989 20.5727 55.5217C20.6302 55.5337 20.6867 55.5505 20.7406 55.5734C20.7958 55.595 20.8475 55.6238 20.8967 55.6562C20.9458 55.6886 20.9916 55.7258 21.0336 55.7678C21.2016 55.9358 21.2976 56.1675 21.2976 56.4039C21.2976 56.4627 21.2916 56.5215 21.2796 56.5803C21.2676 56.6379 21.2508 56.6944 21.228 56.7484C21.2052 56.8024 21.1776 56.8552 21.1452 56.9044C21.1128 56.9536 21.0744 56.9992 21.0336 57.0412C20.9916 57.082 20.946 57.1192 20.8967 57.1528C20.8475 57.1852 20.7958 57.2128 20.7406 57.2356C20.6867 57.2585 20.6302 57.2753 20.5727 57.2873C20.5151 57.2981 20.4551 57.3041 20.3975 57.3041Z" fill="#F4581B"/>
<path d="M45.6016 57.3039C45.5427 57.3039 45.4827 57.2979 45.4251 57.2871C45.3675 57.2751 45.3111 57.2583 45.2571 57.2355C45.2019 57.2126 45.1503 57.185 45.1011 57.1526C45.0519 57.1202 45.0063 57.0818 44.9641 57.041C44.7973 56.873 44.7002 56.6413 44.7002 56.4037C44.7002 56.1673 44.7974 55.9356 44.9641 55.7676C45.0063 55.7256 45.0517 55.6884 45.1011 55.656C45.1504 55.6236 45.2019 55.5948 45.2571 55.5732C45.3111 55.5504 45.3675 55.5335 45.4251 55.5215C45.5415 55.4975 45.6604 55.4975 45.7768 55.5215C45.8343 55.5335 45.8908 55.5504 45.9447 55.5732C45.9999 55.5948 46.0516 55.6236 46.1008 55.656C46.1499 55.6884 46.1957 55.7256 46.2377 55.7676C46.2797 55.8096 46.3169 55.8552 46.3493 55.9044C46.3818 55.9536 46.4093 56.0052 46.4321 56.0592C46.4548 56.1145 46.4717 56.1709 46.4837 56.2285C46.4958 56.2861 46.5017 56.3449 46.5017 56.4037C46.5017 56.4625 46.4957 56.5225 46.4837 56.5801C46.4717 56.6377 46.4549 56.6942 46.4321 56.7482C46.4093 56.8022 46.3817 56.855 46.3493 56.9042C46.3169 56.9534 46.2797 56.999 46.2377 57.041C46.1957 57.0818 46.1501 57.1202 46.1008 57.1526C46.0516 57.185 45.9999 57.2126 45.9447 57.2355C45.8908 57.2583 45.8343 57.2751 45.7768 57.2871C45.7192 57.2979 45.6592 57.3039 45.6016 57.3039Z" fill="#F4581B"/>
<path d="M38.7443 26.7229H27.2563C26.3597 26.7229 25.6328 27.4498 25.6328 28.3464V32.7398H40.3679V28.3464C40.3679 27.4498 39.641 26.7229 38.7443 26.7229Z" fill="#03546D"/>
<path d="M55.998 63.2268H10.002C8.89632 63.2268 8 62.3305 8 61.2249C8 60.1192 8.89632 59.2229 10.002 59.2229H55.998C57.1037 59.2229 58 60.1192 58 61.2249C58 62.3305 57.1037 63.2268 55.998 63.2268Z" fill="#CCCCCC"/>
<path d="M37.2135 28.0463H35.5283V29.7315H37.2135V28.0463Z" fill="#F7CF52"/>
<path d="M35.529 29.7314H33.8438V31.4167H35.529V29.7314Z" fill="#F7CF52"/>
<path d="M33.8434 28.0463H32.1582V29.7315H33.8434V28.0463Z" fill="#F7CF52"/>
<path d="M32.1589 29.7314H30.4736V31.4167H32.1589V29.7314Z" fill="#F7CF52"/>
<path d="M30.4732 28.0463H28.7871V29.7315H30.4732V28.0463Z" fill="#F7CF52"/>
<path d="M49.1338 45.8058H39.2249L28.7998 35.3807H44.9475C46.0049 35.3807 46.9075 36.1009 47.1439 37.1307L49.1338 45.8058Z" fill="#96E0DE"/>
</svg>
