<svg width="60" height="60" viewBox="0 0 60 60" fill="none" xmlns="http://www.w3.org/2000/svg">
<path d="M30 60C46.5685 60 60 46.5685 60 30C60 13.4315 46.5685 0 30 0C13.4315 0 0 13.4315 0 30C0 46.5685 13.4315 60 30 60Z" fill="#CEECF6"/>
<path d="M44.6835 22.6538H34.3592L32.6959 23.4549L31.0938 29.9535L32.6959 36.4521L34.3592 37.2532H44.6835V31.6169L43.8825 29.9535L44.6835 28.2902V22.6538Z" fill="#D61322"/>
<path d="M20.709 22.6538V28.2902L21.5101 29.9535L20.709 31.6169V37.2532H31.0332L32.6965 36.4521V23.4549L31.0332 22.6538H20.709Z" fill="#EC2533"/>
<path d="M32.7429 43.7292L37.7012 44.9709V48.9384V49.2562L38.0101 49.1813L47.9939 46.7602L48.7086 49.4871L34.8675 57.1156L32.7631 56.5248L31.2113 50.4015L32.7429 43.7292Z" fill="#FFC376" stroke="#FEA82F" stroke-width="0.5"/>
<path d="M23.5466 53.9379L23.4929 53.9228L23.4379 53.932L14.0266 55.4995L16.3223 44.235L27.7082 42.4687L32.3055 43.6199V56.3966L23.5466 53.9379Z" fill="#FFC376" stroke="#FEA82F" stroke-width="0.5"/>
<path d="M16.1137 44.0097H13.0572L11.4551 51.1779L13.0572 58.3462H16.1137V44.0097Z" fill="#027ACD"/>
<path d="M13.0567 44.0093H10V58.346H13.0567V44.0093Z" fill="#3EAFF5"/>
<path d="M31.8952 28.2901H20.709V31.6168H31.8952V28.2901Z" fill="#FEDF77"/>
<path d="M44.6833 28.2901H33.4971V31.6168H44.6833V28.2901Z" fill="#FFC222"/>
<path d="M34.36 22.6538H32.6966L31.8955 29.9535L32.6966 37.2532H34.36V22.6538Z" fill="#FF9500"/>
<path d="M32.6965 22.6538H31.0332V37.2532H32.6965V22.6538Z" fill="#FFC222"/>
</svg>
